<svg width="593.9199951171875px" height="121.6174835205078px" xmlns="http://www.w3.org/2000/svg" viewBox="-46.95999755859373 14.191258239746098 593.9199951171875 121.6174835205078" style="background: rgba(0, 0, 0, 0);" preserveAspectRatio="xMidYMid"><defs><filter id="editing-extrusion" x="-100%" y="-100%" width="300%" height="300%"><feFlood result="color1" flood-color="#444"></feFlood><feConvolveMatrix order="8,8" divisor="1" kernelMatrix="1 0 0 0 0 0 0 0 0 1 0 0 0 0 0 0 0 0 1 0 0 0 0 0 0 0 0 1 0 0 0 0 0 0 0 0 1 0 0 0 0 0 0 0 0 1 0 0 0 0 0 0 0 0 1 0 0 0 0 0 0 0 0 1" in="SourceAlpha" result="extrude"></feConvolveMatrix><feComposite in="color1" in2="extrude" result="comp-extrude" operator="in"></feComposite><feOffset dx="4" dy="4" in="comp-extrude" result="offset-extrude"></feOffset><feMerge><feMergeNode in="offset-extrude"></feMergeNode><feMergeNode in="SourceGraphic"></feMergeNode></feMerge></filter></defs><g filter="url(#editing-extrusion)"><g transform="translate(42.27625846862793, 104.1200008392334)"><path d="M29.18 1.28L29.18 1.28L29.18 1.28Q20.99 1.28 20.22-10.37L20.22-10.37L9.22-10.37L9.22-10.37Q7.94-7.42 7.04-4.86L7.04-4.86L5.38 0L-3.58 0L16.58-42.24L30.34-42.24L33.02-11.14L33.02-11.14Q33.66-4.42 36.22-2.43L36.22-2.43L36.22-2.43Q34.37 1.28 29.18 1.28ZM14.72-23.17L11.20-15.04L20.03-15.04L19.26-31.49L19.26-33.22L14.72-23.17ZM39.10-3.07L39.10-3.07L47.04-44.80L60.03-46.08L58.05-36.29L58.05-36.29Q57.34-33.28 56.45-31.17L56.45-31.17L56.45-31.17Q57.86-32.96 60.93-33.66L60.93-33.66L60.93-33.66Q61.82-33.92 62.91-33.92L62.91-33.92L62.91-33.92Q68.86-33.92 72.13-30.30L72.13-30.30L72.13-30.30Q75.39-26.69 75.39-19.71L75.39-19.71L75.39-19.71Q75.39-10.62 70.21-4.93L70.21-4.93L70.21-4.93Q64.64 1.28 54.53 1.28L54.53 1.28L54.53 1.28Q47.55 1.28 42.30-1.02L42.30-1.02L42.30-1.02Q40.45-1.86 39.10-3.07ZM55.36-22.40L51.97-3.65L51.97-3.65Q53.31-2.50 54.98-2.50L54.98-2.50L54.98-2.50Q56.64-2.50 57.60-3.14L57.60-3.14L57.60-3.14Q58.56-3.78 59.26-5.06L59.26-5.06L59.26-5.06Q61.18-8.51 62.72-19.07L62.72-19.07L62.72-19.07Q63.17-22.08 63.17-25.09L63.17-25.09L63.17-25.09Q63.17-28.10 62.50-29.06L62.50-29.06L62.50-29.06Q61.82-30.02 60.54-30.02L60.54-30.02L60.54-30.02Q56.64-30.02 55.36-22.40L55.36-22.40ZM93.18 1.28L93.18 1.28L93.18 1.28Q79.10 1.28 79.10-11.97L79.10-11.97L79.10-11.97Q79.10-21.38 84.29-27.46L84.29-27.46L84.29-27.46Q89.79-33.92 99.33-33.92L99.33-33.92L99.33-33.92Q106.24-33.92 109.76-30.72L109.76-30.72L109.76-30.72Q113.28-27.52 113.28-20.80L113.28-20.80L113.28-20.80Q113.28-10.56 107.78-4.61L107.78-4.61L107.78-4.61Q102.40 1.28 93.18 1.28ZM94.85-26.56L94.85-26.56L94.85-26.56Q94.08-24.83 93.47-22.24L93.47-22.24L93.47-22.24Q92.86-19.65 92.10-15.55L92.10-15.55L92.10-15.55Q91.33-11.46 91.33-6.40L91.33-6.40L91.33-6.40Q91.33-4.74 91.87-3.65L91.87-3.65L91.87-3.65Q92.42-2.56 93.89-2.56L93.89-2.56L93.89-2.56Q95.36-2.56 96.29-3.26L96.29-3.26L96.29-3.26Q97.22-3.97 97.92-5.63L97.92-5.63L97.92-5.63Q99.20-8.58 100.22-14.05L100.22-14.05L100.22-14.05Q101.25-19.52 101.34-21.89L101.34-21.89L101.34-21.89Q101.44-24.26 101.44-26.02L101.44-26.02L101.44-26.02Q101.44-27.78 100.93-28.93L100.93-28.93L100.93-28.93Q100.42-30.08 98.98-30.08L98.98-30.08L98.98-30.08Q97.54-30.08 96.58-29.18L96.58-29.18L96.58-29.18Q95.62-28.29 94.85-26.56ZM137.60-2.69L137.60-2.69L137.60-2.69Q134.53 1.28 126.91 1.28L126.91 1.28L126.91 1.28Q122.94 1.28 120.06-1.12L120.06-1.12L120.06-1.12Q117.18-3.52 117.18-6.98L117.18-6.98L117.18-6.98Q117.18-8.90 117.38-9.86L117.38-9.86L121.66-32.64L134.66-33.92L129.98-9.22L129.98-9.22Q129.73-7.81 129.73-6.98L129.73-6.98L129.73-6.98Q129.73-3.26 131.97-3.26L131.97-3.26L131.97-3.26Q134.46-3.26 136.26-6.66L136.26-6.66L136.26-6.66Q136.83-7.74 137.09-9.15L137.09-9.15L141.63-32.64L154.24-33.92L149.50-8.96L149.50-8.96Q149.31-8 149.31-6.98L149.31-6.98L149.31-6.98Q149.31-5.95 149.89-4.83L149.89-4.83L149.89-4.83Q150.46-3.71 152.32-3.46L152.32-3.46L152.32-3.46Q151.94-1.92 150.59-0.90L150.59-0.90L150.59-0.90Q147.78 1.28 144.74 1.28L144.74 1.28L144.74 1.28Q141.70 1.28 139.90 0.19L139.90 0.19L139.90 0.19Q138.11-0.90 137.60-2.69ZM158.72-6.40L158.72-6.40L158.72-6.40Q158.72-8.13 159.62-12.48L159.62-12.48L163.01-29.76L159.23-29.76L159.49-31.68L159.49-31.68Q167.17-33.98 174.59-39.62L174.59-39.62L177.66-39.62L176.13-32.64L181.12-32.64L180.54-29.76L175.62-29.76L172.35-12.48L172.35-12.48Q171.52-8.51 171.52-7.17L171.52-7.17L171.52-7.17Q171.52-4.10 174.21-3.46L174.21-3.46L174.21-3.46Q173.57-1.28 171.26 0L171.26 0L171.26 0Q168.96 1.28 165.70 1.28L165.70 1.28L165.70 1.28Q162.43 1.28 160.58-0.77L160.58-0.77L160.58-0.77Q158.72-2.82 158.72-6.40ZM219.01-42.69L219.01-42.69L219.01-42.69Q234.69-42.69 234.69-31.62L234.69-31.62L234.69-31.62Q234.69-25.54 230.78-21.89L230.78-21.89L230.78-21.89Q226.94-18.24 220.22-18.24L220.22-18.24L220.22-18.24Q217.09-18.24 214.66-20.03L214.66-20.03L214.66-20.03Q213.50-20.80 212.74-21.82L212.74-21.82L212.74-21.82Q217.41-21.82 219.87-24.67L219.87-24.67L219.87-24.67Q222.34-27.52 222.34-33.09L222.34-33.09L222.34-33.09Q222.34-38.66 216.83-38.66L216.83-38.66L215.30-38.66L215.30-38.66Q214.91-38.66 214.59-38.59L214.59-38.59L207.23 0L193.34 0L201.22-41.92L201.22-41.92Q208.06-42.56 212.03-42.62L212.03-42.62L212.03-42.62Q216-42.69 219.01-42.69ZM255.04-17.98L255.04-17.98L255.04-17.98Q257.34-22.08 257.34-26.24L257.34-26.24L257.34-26.24Q257.34-28.99 255.36-28.99L255.36-28.99L255.36-28.99Q253.82-28.99 252.22-26.37L252.22-26.37L252.22-26.37Q250.56-23.74 250.05-20.35L250.05-20.35L246.72 0L233.47 1.28L240-32.64L250.56-33.92L249.41-27.46L249.41-27.46Q252.54-33.92 259.58-33.92L259.58-33.92L259.58-33.92Q263.30-33.92 265.31-32L265.31-32L265.31-32Q267.33-30.08 267.33-26.14L267.33-26.14L267.33-26.14Q267.33-22.21 264.74-19.71L264.74-19.71L264.74-19.71Q262.14-17.22 257.73-17.22L257.73-17.22L257.73-17.22Q255.81-17.22 255.04-17.98ZM282.30 1.28L282.30 1.28L282.30 1.28Q268.22 1.28 268.22-11.97L268.22-11.97L268.22-11.97Q268.22-21.38 273.41-27.46L273.41-27.46L273.41-27.46Q278.91-33.92 288.45-33.92L288.45-33.92L288.45-33.92Q295.36-33.92 298.88-30.72L298.88-30.72L298.88-30.72Q302.40-27.52 302.40-20.80L302.40-20.80L302.40-20.80Q302.40-10.56 296.90-4.61L296.90-4.61L296.90-4.61Q291.52 1.28 282.30 1.28ZM283.97-26.56L283.97-26.56L283.97-26.56Q283.20-24.83 282.59-22.24L282.59-22.24L282.59-22.24Q281.98-19.65 281.22-15.55L281.22-15.55L281.22-15.55Q280.45-11.46 280.45-6.40L280.45-6.40L280.45-6.40Q280.45-4.74 280.99-3.65L280.99-3.65L280.99-3.65Q281.54-2.56 283.01-2.56L283.01-2.56L283.01-2.56Q284.48-2.56 285.41-3.26L285.41-3.26L285.41-3.26Q286.34-3.97 287.04-5.63L287.04-5.63L287.04-5.63Q288.32-8.58 289.34-14.05L289.34-14.05L289.34-14.05Q290.37-19.52 290.46-21.89L290.46-21.89L290.46-21.89Q290.56-24.26 290.56-26.02L290.56-26.02L290.56-26.02Q290.56-27.78 290.05-28.93L290.05-28.93L290.05-28.93Q289.54-30.08 288.10-30.08L288.10-30.08L288.10-30.08Q286.66-30.08 285.70-29.18L285.70-29.18L285.70-29.18Q284.74-28.29 283.97-26.56ZM297.28 7.62L297.28 7.62L297.28 7.62Q300.61 7.36 303.04 3.20L303.04 3.20L303.04 3.20Q304.90 0 306.11-5.89L306.11-5.89L311.30-32.64L324.16-33.92L318.72-5.89L318.72-5.89Q316.61 4.80 313.34 8.32L313.34 8.32L313.34 8.32Q311.62 10.24 309.38 10.88L309.38 10.88L309.38 10.88Q307.14 11.52 304.58 11.52L304.58 11.52L304.58 11.52Q299.20 11.52 297.28 7.62ZM312.32-41.54L312.32-41.54L312.32-41.54Q312.32-44.03 314.40-45.38L314.40-45.38L314.40-45.38Q316.48-46.72 319.49-46.72L319.49-46.72L319.49-46.72Q322.50-46.72 324.32-45.38L324.32-45.38L324.32-45.38Q326.14-44.03 326.14-41.54L326.14-41.54L326.14-41.54Q326.14-39.04 324.13-37.76L324.13-37.76L324.13-37.76Q322.11-36.48 319.10-36.48L319.10-36.48L319.10-36.48Q316.10-36.48 314.21-37.76L314.21-37.76L314.21-37.76Q312.32-39.04 312.32-41.54ZM352.38-10.82L352.38-10.82L352.38-10.82Q353.98-9.73 353.98-7.33L353.98-7.33L353.98-7.33Q353.98-4.93 352.77-3.39L352.77-3.39L352.77-3.39Q351.55-1.86 349.57-0.83L349.57-0.83L349.57-0.83Q345.47 1.28 341.06 1.28L341.06 1.28L341.06 1.28Q336.64 1.28 334.05 0.32L334.05 0.32L334.05 0.32Q331.46-0.64 329.73-2.43L329.73-2.43L329.73-2.43Q326.34-5.82 326.34-12.03L326.34-12.03L326.34-12.03Q326.34-21.70 331.58-27.58L331.58-27.58L331.58-27.58Q337.22-33.92 347.01-33.92L347.01-33.92L347.01-33.92Q353.09-33.92 356.10-31.36L356.10-31.36L356.10-31.36Q358.34-29.44 358.34-26.30L358.34-26.30L358.34-26.30Q358.34-15.04 338.88-15.04L338.88-15.04L338.88-15.04Q338.62-13.38 338.62-11.97L338.62-11.97L338.62-11.97Q338.62-9.02 339.94-7.90L339.94-7.90L339.94-7.90Q341.25-6.78 343.68-6.78L343.68-6.78L343.68-6.78Q346.11-6.78 348.70-7.90L348.70-7.90L348.70-7.90Q351.30-9.02 352.38-10.82ZM339.33-17.79L339.33-17.79L339.33-17.79Q343.87-17.79 346.50-20.61L346.50-20.61L346.50-20.61Q349.12-23.30 349.12-27.58L349.12-27.58L349.12-27.58Q349.12-29.06 348.58-29.86L348.58-29.86L348.58-29.86Q348.03-30.66 346.94-30.66L346.94-30.66L346.94-30.66Q345.86-30.66 344.93-30.24L344.93-30.24L344.93-30.24Q344.00-29.82 343.04-28.42L343.04-28.42L343.04-28.42Q340.67-25.22 339.33-17.79ZM391.94-26.62L391.94-26.62L391.94-26.62Q391.94-23.94 389.70-22.27L389.70-22.27L389.70-22.27Q387.46-20.61 383.81-20.61L383.81-20.61L383.81-20.61Q382.27-20.61 381.38-21.06L381.38-21.06L381.38-21.06Q382.08-22.72 382.30-24.80L382.30-24.80L382.30-24.80Q382.53-26.88 382.53-27.46L382.53-27.46L382.53-27.46Q382.53-30.14 380.67-30.14L380.67-30.14L380.67-30.14Q379.39-30.14 377.95-28.54L377.95-28.54L377.95-28.54Q376.51-26.94 375.30-24.45L375.30-24.45L375.30-24.45Q372.61-18.69 372.61-12.86L372.61-12.86L372.61-12.86Q372.61-9.66 373.82-8.22L373.82-8.22L373.82-8.22Q375.04-6.78 377.73-6.78L377.73-6.78L377.73-6.78Q381.44-6.78 384.38-9.86L384.38-9.86L384.38-9.86Q385.22-10.82 385.66-11.90L385.66-11.90L385.66-11.90Q388.10-10.62 388.10-7.10L388.10-7.10L388.10-7.10Q388.10-3.52 384.13-1.15L384.13-1.15L384.13-1.15Q380.03 1.28 373.50 1.28L373.50 1.28L373.50 1.28Q360.51 1.28 360.51-12.48L360.51-12.48L360.51-12.48Q360.51-22.53 366.21-28.29L366.21-28.29L366.21-28.29Q371.71-33.92 381.82-33.92L381.82-33.92L381.82-33.92Q391.94-33.92 391.94-26.62ZM394.69-6.40L394.69-6.40L394.69-6.40Q394.69-8.13 395.58-12.48L395.58-12.48L398.98-29.76L395.20-29.76L395.46-31.68L395.46-31.68Q403.14-33.98 410.56-39.62L410.56-39.62L413.63-39.62L412.10-32.64L417.09-32.64L416.51-29.76L411.58-29.76L408.32-12.48L408.32-12.48Q407.49-8.51 407.49-7.17L407.49-7.17L407.49-7.17Q407.49-4.10 410.18-3.46L410.18-3.46L410.18-3.46Q409.54-1.28 407.23 0L407.23 0L407.23 0Q404.93 1.28 401.66 1.28L401.66 1.28L401.66 1.28Q398.40 1.28 396.54-0.77L396.54-0.77L396.54-0.77Q394.69-2.82 394.69-6.40Z" fill="#ccc"></path></g></g><style>text {
  font-size: 64px;
  font-family: Arial Black;
  dominant-baseline: central;
  text-anchor: middle;
}</style></svg>