<svg width="697.5349853515625px" height="121.6174835205078px" xmlns="http://www.w3.org/2000/svg" viewBox="-98.76749267578123 14.191258239746098 697.5349853515625 121.6174835205078" style="background: rgba(0, 0, 0, 0);" preserveAspectRatio="xMidYMid"><defs><filter id="editing-extrusion" x="-100%" y="-100%" width="300%" height="300%"><feFlood result="color1" flood-color="#444"></feFlood><feConvolveMatrix order="8,8" divisor="1" kernelMatrix="1 0 0 0 0 0 0 0 0 1 0 0 0 0 0 0 0 0 1 0 0 0 0 0 0 0 0 1 0 0 0 0 0 0 0 0 1 0 0 0 0 0 0 0 0 1 0 0 0 0 0 0 0 0 1 0 0 0 0 0 0 0 0 1" in="SourceAlpha" result="extrude"></feConvolveMatrix><feComposite in="color1" in2="extrude" result="comp-extrude" operator="in"></feComposite><feOffset dx="4" dy="4" in="comp-extrude" result="offset-extrude"></feOffset><feMerge><feMergeNode in="offset-extrude"></feMergeNode><feMergeNode in="SourceGraphic"></feMergeNode></feMerge></filter></defs><g filter="url(#editing-extrusion)"><g transform="translate(2.0349981784820557, 102.77499961853027)"><path d="M14.21 0L0.51 0L8.32-42.05L8.32-42.05Q14.66-42.75 23.90-42.75L23.90-42.75L23.90-42.75Q33.15-42.75 37.44-40.06L37.44-40.06L37.44-40.06Q41.73-37.38 41.73-31.97L41.73-31.97L41.73-31.97Q41.73-26.56 38.94-23.17L38.94-23.17L38.94-23.17Q36.16-19.78 31.36-18.69L31.36-18.69L31.36-18.69Q32.45-13.38 34.94-9.09L34.94-9.09L34.94-9.09Q37.25-5.06 39.94-3.78L39.94-3.78L39.94-3.78Q38.98-1.09 37.02 0.10L37.02 0.10L37.02 0.10Q35.07 1.28 32.29 1.28L32.29 1.28L32.29 1.28Q29.50 1.28 27.33-0.35L27.33-0.35L27.33-0.35Q25.15-1.98 23.42-4.99L23.42-4.99L23.42-4.99Q19.78-11.52 19.39-21.82L19.39-21.82L19.84-21.82L19.84-21.82Q24.58-21.95 26.94-24.42L26.94-24.42L26.94-24.42Q29.31-26.88 29.31-32.06L29.31-32.06L29.31-32.06Q29.31-38.53 23.87-38.78L23.87-38.78L22.46-38.78L22.46-38.78Q21.89-38.78 21.57-38.72L21.57-38.72L14.21 0ZM70.59-10.82L70.59-10.82L70.59-10.82Q72.19-9.73 72.19-7.33L72.19-7.33L72.19-7.33Q72.19-4.93 70.98-3.39L70.98-3.39L70.98-3.39Q69.76-1.86 67.78-0.83L67.78-0.83L67.78-0.83Q63.68 1.28 59.26 1.28L59.26 1.28L59.26 1.28Q54.85 1.28 52.26 0.32L52.26 0.32L52.26 0.32Q49.66-0.64 47.94-2.43L47.94-2.43L47.94-2.43Q44.54-5.82 44.54-12.03L44.54-12.03L44.54-12.03Q44.54-21.70 49.79-27.58L49.79-27.58L49.79-27.58Q55.42-33.92 65.22-33.92L65.22-33.92L65.22-33.92Q71.30-33.92 74.30-31.36L74.30-31.36L74.30-31.36Q76.54-29.44 76.54-26.30L76.54-26.30L76.54-26.30Q76.54-15.04 57.09-15.04L57.09-15.04L57.09-15.04Q56.83-13.38 56.83-11.97L56.83-11.97L56.83-11.97Q56.83-9.02 58.14-7.90L58.14-7.90L58.14-7.90Q59.46-6.78 61.89-6.78L61.89-6.78L61.89-6.78Q64.32-6.78 66.91-7.90L66.91-7.90L66.91-7.90Q69.50-9.02 70.59-10.82ZM57.54-17.79L57.54-17.79L57.54-17.79Q62.08-17.79 64.70-20.61L64.70-20.61L64.70-20.61Q67.33-23.30 67.33-27.58L67.33-27.58L67.33-27.58Q67.33-29.06 66.78-29.86L66.78-29.86L66.78-29.86Q66.24-30.66 65.15-30.66L65.15-30.66L65.15-30.66Q64.06-30.66 63.14-30.24L63.14-30.24L63.14-30.24Q62.21-29.82 61.25-28.42L61.25-28.42L61.25-28.42Q58.88-25.22 57.54-17.79ZM97.86-22.46L97.86-22.46L97.86-22.46Q98.75-24.83 98.75-26.88L98.75-26.88L98.75-26.88Q98.75-30.66 95.68-30.66L95.68-30.66L95.68-30.66Q94.08-30.66 92.77-29.22L92.77-29.22L92.77-29.22Q91.46-27.78 91.46-25.98L91.46-25.98L91.46-25.98Q91.46-24.70 92.48-23.68L92.48-23.68L92.48-23.68Q93.95-22.27 97.73-19.97L97.73-19.97L97.73-19.97Q101.50-17.66 102.94-15.78L102.94-15.78L102.94-15.78Q104.38-13.89 104.38-11.30L104.38-11.30L104.38-11.30Q104.38-8.70 103.14-6.34L103.14-6.34L103.14-6.34Q101.89-3.97 99.65-2.30L99.65-2.30L99.65-2.30Q94.85 1.28 87.17 1.28L87.17 1.28L87.17 1.28Q83.01 1.28 79.81-0.90L79.81-0.90L79.81-0.90Q76.61-3.01 76.61-5.50L76.61-5.50L76.61-5.50Q76.61-8 78.43-9.47L78.43-9.47L78.43-9.47Q80.26-10.94 82.94-10.94L82.94-10.94L82.94-10.94Q85.63-10.94 87.30-9.92L87.30-9.92L87.30-9.92Q86.46-7.81 86.46-6.40L86.46-6.40L86.46-6.40Q86.46-2.18 90.05-2.18L90.05-2.18L90.05-2.18Q91.58-2.18 92.61-3.14L92.61-3.14L92.61-3.14Q93.63-4.10 93.63-5.76L93.63-5.76L93.63-5.76Q93.63-9.02 88.13-12.48L88.13-12.48L88.13-12.48Q83.65-15.42 82.62-16.58L82.62-16.58L82.62-16.58Q80.90-18.62 80.90-21.18L80.90-21.18L80.90-21.18Q80.90-23.74 82.11-26.18L82.11-26.18L82.11-26.18Q83.33-28.61 85.57-30.34L85.57-30.34L85.57-30.34Q90.24-33.92 98.37-33.92L98.37-33.92L98.37-33.92Q102.53-33.92 104.99-32.26L104.99-32.26L104.99-32.26Q107.46-30.59 107.46-27.78L107.46-27.78L107.46-27.78Q107.46-24.96 105.76-23.36L105.76-23.36L105.76-23.36Q104.06-21.76 100.99-21.76L100.99-21.76L100.99-21.76Q98.88-21.76 97.86-22.46ZM110.85-6.40L110.85-6.40L110.85-6.40Q110.85-8.13 111.74-12.48L111.74-12.48L115.14-29.76L111.36-29.76L111.62-31.68L111.62-31.68Q119.30-33.98 126.72-39.62L126.72-39.62L129.79-39.62L128.26-32.64L133.25-32.64L132.67-29.76L127.74-29.76L124.48-12.48L124.48-12.48Q123.65-8.51 123.65-7.17L123.65-7.17L123.65-7.17Q123.65-4.10 126.34-3.46L126.34-3.46L126.34-3.46Q125.70-1.28 123.39 0L123.39 0L123.39 0Q121.09 1.28 117.82 1.28L117.82 1.28L117.82 1.28Q114.56 1.28 112.70-0.77L112.70-0.77L112.70-0.77Q110.85-2.82 110.85-6.40ZM135.46-1.92L135.46-1.92L135.46-1.92Q133.95-3.58 133.28-6.21L133.28-6.21L133.28-6.21Q132.61-8.83 132.61-13.12L132.61-13.12L132.61-13.12Q132.61-17.41 134.08-21.31L134.08-21.31L134.08-21.31Q135.55-25.22 138.24-28.03L138.24-28.03L138.24-28.03Q143.74-33.92 152.83-33.92L152.83-33.92L152.83-33.92Q156.10-33.92 158.46-32.83L158.46-32.83L169.41-33.92L164.67-8.96L164.67-8.96Q164.48-8.19 164.48-6.78L164.48-6.78L164.48-6.78Q164.48-5.38 165.34-4.48L165.34-4.48L165.34-4.48Q166.21-3.58 167.49-3.46L167.49-3.46L167.49-3.46Q166.85-1.28 164.51 0L164.51 0L164.51 0Q162.18 1.28 159.55 1.28L159.55 1.28L159.55 1.28Q156.93 1.28 155.17 0.29L155.17 0.29L155.17 0.29Q153.41-0.70 152.90-2.37L152.90-2.37L152.90-2.37Q151.87-0.77 149.70 0.26L149.70 0.26L149.70 0.26Q147.52 1.28 144.61 1.28L144.61 1.28L144.61 1.28Q141.70 1.28 139.33 0.51L139.33 0.51L139.33 0.51Q136.96-0.26 135.46-1.92ZM148.96-27.90L148.96-27.90L148.96-27.90Q148.22-26.75 147.58-24.80L147.58-24.80L147.58-24.80Q146.94-22.85 145.89-17.63L145.89-17.63L145.89-17.63Q144.83-12.42 144.83-8.70L144.83-8.70L144.83-8.70Q144.83-4.99 145.41-3.90L145.41-3.90L145.41-3.90Q145.98-2.82 147.01-2.82L147.01-2.82L147.01-2.82Q149.06-2.82 150.56-4.77L150.56-4.77L150.56-4.77Q152.06-6.72 152.64-10.18L152.64-10.18L156.03-28.93L156.03-28.93Q154.69-30.08 153.12-30.08L153.12-30.08L153.12-30.08Q151.55-30.08 150.62-29.57L150.62-29.57L150.62-29.57Q149.70-29.06 148.96-27.90ZM193.41-2.69L193.41-2.69L193.41-2.69Q190.34 1.28 182.72 1.28L182.72 1.28L182.72 1.28Q178.75 1.28 175.87-1.12L175.87-1.12L175.87-1.12Q172.99-3.52 172.99-6.98L172.99-6.98L172.99-6.98Q172.99-8.90 173.18-9.86L173.18-9.86L177.47-32.64L190.46-33.92L185.79-9.22L185.79-9.22Q185.54-7.81 185.54-6.98L185.54-6.98L185.54-6.98Q185.54-3.26 187.78-3.26L187.78-3.26L187.78-3.26Q190.27-3.26 192.06-6.66L192.06-6.66L192.06-6.66Q192.64-7.74 192.90-9.15L192.90-9.15L197.44-32.64L210.05-33.92L205.31-8.96L205.31-8.96Q205.12-8 205.12-6.98L205.12-6.98L205.12-6.98Q205.12-5.95 205.70-4.83L205.70-4.83L205.70-4.83Q206.27-3.71 208.13-3.46L208.13-3.46L208.13-3.46Q207.74-1.92 206.40-0.90L206.40-0.90L206.40-0.90Q203.58 1.28 200.54 1.28L200.54 1.28L200.54 1.28Q197.50 1.28 195.71 0.19L195.71 0.19L195.71 0.19Q193.92-0.90 193.41-2.69ZM233.54-17.98L233.54-17.98L233.54-17.98Q235.84-22.08 235.84-26.24L235.84-26.24L235.84-26.24Q235.84-28.99 233.86-28.99L233.86-28.99L233.86-28.99Q232.32-28.99 230.72-26.37L230.72-26.37L230.72-26.37Q229.06-23.74 228.54-20.35L228.54-20.35L225.22 0L211.97 1.28L218.50-32.64L229.06-33.92L227.90-27.46L227.90-27.46Q231.04-33.92 238.08-33.92L238.08-33.92L238.08-33.92Q241.79-33.92 243.81-32L243.81-32L243.81-32Q245.82-30.08 245.82-26.14L245.82-26.14L245.82-26.14Q245.82-22.21 243.23-19.71L243.23-19.71L243.23-19.71Q240.64-17.22 236.22-17.22L236.22-17.22L236.22-17.22Q234.30-17.22 233.54-17.98ZM249.63-1.92L249.63-1.92L249.63-1.92Q248.13-3.58 247.46-6.21L247.46-6.21L247.46-6.21Q246.78-8.83 246.78-13.12L246.78-13.12L246.78-13.12Q246.78-17.41 248.26-21.31L248.26-21.31L248.26-21.31Q249.73-25.22 252.42-28.03L252.42-28.03L252.42-28.03Q257.92-33.92 267.01-33.92L267.01-33.92L267.01-33.92Q270.27-33.92 272.64-32.83L272.64-32.83L283.58-33.92L278.85-8.96L278.85-8.96Q278.66-8.19 278.66-6.78L278.66-6.78L278.66-6.78Q278.66-5.38 279.52-4.48L279.52-4.48L279.52-4.48Q280.38-3.58 281.66-3.46L281.66-3.46L281.66-3.46Q281.02-1.28 278.69 0L278.69 0L278.69 0Q276.35 1.28 273.73 1.28L273.73 1.28L273.73 1.28Q271.10 1.28 269.34 0.29L269.34 0.29L269.34 0.29Q267.58-0.70 267.07-2.37L267.07-2.37L267.07-2.37Q266.05-0.77 263.87 0.26L263.87 0.26L263.87 0.26Q261.70 1.28 258.78 1.28L258.78 1.28L258.78 1.28Q255.87 1.28 253.50 0.51L253.50 0.51L253.50 0.51Q251.14-0.26 249.63-1.92ZM263.14-27.90L263.14-27.90L263.14-27.90Q262.40-26.75 261.76-24.80L261.76-24.80L261.76-24.80Q261.12-22.85 260.06-17.63L260.06-17.63L260.06-17.63Q259.01-12.42 259.01-8.70L259.01-8.70L259.01-8.70Q259.01-4.99 259.58-3.90L259.58-3.90L259.58-3.90Q260.16-2.82 261.18-2.82L261.18-2.82L261.18-2.82Q263.23-2.82 264.74-4.77L264.74-4.77L264.74-4.77Q266.24-6.72 266.82-10.18L266.82-10.18L270.21-28.93L270.21-28.93Q268.86-30.08 267.30-30.08L267.30-30.08L267.30-30.08Q265.73-30.08 264.80-29.57L264.80-29.57L264.80-29.57Q263.87-29.06 263.14-27.90ZM314.11 1.28L314.11 1.28L314.11 1.28Q306.37 1.28 306.37-4.74L306.37-4.74L306.37-4.74Q306.43-6.40 306.94-9.22L306.94-9.22L308.10-15.10L308.10-15.10Q309.82-23.42 309.82-25.28L309.82-25.28L309.82-25.28Q309.82-28.99 307.65-28.99L307.65-28.99L307.65-28.99Q304-28.99 302.08-19.46L302.08-19.46L298.30 0L285.44 1.28L292.10-32.70L302.59-33.92L301.57-27.65L301.57-27.65Q304.58-33.92 313.79-33.92L313.79-33.92L313.79-33.92Q318.27-33.92 320.16-32.03L320.16-32.03L320.16-32.03Q322.05-30.14 322.05-25.92L322.05-25.92L322.05-25.92Q322.05-21.95 320-12.67L320-12.67L320-12.67Q319.04-8.51 319.04-6.94L319.04-6.94L319.04-6.94Q319.04-5.38 319.90-4.48L319.90-4.48L319.90-4.48Q320.77-3.58 322.05-3.46L322.05-3.46L322.05-3.46Q321.41-1.28 319.20 0L319.20 0L319.20 0Q316.99 1.28 314.11 1.28ZM328.19-6.40L328.19-6.40L328.19-6.40Q328.19-8.13 329.09-12.48L329.09-12.48L332.48-29.76L328.70-29.76L328.96-31.68L328.96-31.68Q336.64-33.98 344.06-39.62L344.06-39.62L347.14-39.62L345.60-32.64L350.59-32.64L350.02-29.76L345.09-29.76L341.82-12.48L341.82-12.48Q340.99-8.51 340.99-7.17L340.99-7.17L340.99-7.17Q340.99-4.10 343.68-3.46L343.68-3.46L343.68-3.46Q343.04-1.28 340.74 0L340.74 0L340.74 0Q338.43 1.28 335.17 1.28L335.17 1.28L335.17 1.28Q331.90 1.28 330.05-0.77L330.05-0.77L330.05-0.77Q328.19-2.82 328.19-6.40ZM368.90 0L361.54 0L373.12-42.24L386.50-42.24L389.44-18.11L401.34-42.24L412.54-42.24L413.70-10.62L413.70-10.62Q413.95-4.35 417.02-2.43L417.02-2.43L417.02-2.43Q416.32-1.15 414.27 0.06L414.27 0.06L414.27 0.06Q412.22 1.28 409.50 1.28L409.50 1.28L409.50 1.28Q406.78 1.28 405.18 0.51L405.18 0.51L405.18 0.51Q403.58-0.26 402.69-1.54L402.69-1.54L402.69-1.54Q401.09-3.84 401.09-8.26L401.09-8.26L401.09-28.03L388.48 0L380.54 0L376.06-28.74L368.90 0ZM422.56-1.92L422.56-1.92L422.56-1.92Q421.06-3.58 420.38-6.21L420.38-6.21L420.38-6.21Q419.71-8.83 419.71-13.12L419.71-13.12L419.71-13.12Q419.71-17.41 421.18-21.31L421.18-21.31L421.18-21.31Q422.66-25.22 425.34-28.03L425.34-28.03L425.34-28.03Q430.85-33.92 439.94-33.92L439.94-33.92L439.94-33.92Q443.20-33.92 445.57-32.83L445.57-32.83L456.51-33.92L451.78-8.96L451.78-8.96Q451.58-8.19 451.58-6.78L451.58-6.78L451.58-6.78Q451.58-5.38 452.45-4.48L452.45-4.48L452.45-4.48Q453.31-3.58 454.59-3.46L454.59-3.46L454.59-3.46Q453.95-1.28 451.62 0L451.62 0L451.62 0Q449.28 1.28 446.66 1.28L446.66 1.28L446.66 1.28Q444.03 1.28 442.27 0.29L442.27 0.29L442.27 0.29Q440.51-0.70 440-2.37L440-2.37L440-2.37Q438.98-0.77 436.80 0.26L436.80 0.26L436.80 0.26Q434.62 1.28 431.71 1.28L431.71 1.28L431.71 1.28Q428.80 1.28 426.43 0.51L426.43 0.51L426.43 0.51Q424.06-0.26 422.56-1.92ZM436.06-27.90L436.06-27.90L436.06-27.90Q435.33-26.75 434.69-24.80L434.69-24.80L434.69-24.80Q434.05-22.85 432.99-17.63L432.99-17.63L432.99-17.63Q431.94-12.42 431.94-8.70L431.94-8.70L431.94-8.70Q431.94-4.99 432.51-3.90L432.51-3.90L432.51-3.90Q433.09-2.82 434.11-2.82L434.11-2.82L434.11-2.82Q436.16-2.82 437.66-4.77L437.66-4.77L437.66-4.77Q439.17-6.72 439.74-10.18L439.74-10.18L443.14-28.93L443.14-28.93Q441.79-30.08 440.22-30.08L440.22-30.08L440.22-30.08Q438.66-30.08 437.73-29.57L437.73-29.57L437.73-29.57Q436.80-29.06 436.06-27.90ZM489.79-4.38L489.79-4.38L489.79-4.38Q487.10-1.66 483.42-0.19L483.42-0.19L483.42-0.19Q479.74 1.28 476.10 1.28L476.10 1.28L476.10 1.28Q472.45 1.28 471.17 0.64L471.17 0.64L469.18 11.52L456.19 12.80L465.02-32.64L475.46-33.73L474.62-29.31L474.62-29.31Q477.31-33.86 482.88-33.86L482.88-33.86L482.88-33.86Q489.15-33.86 492.48-29.82L492.48-29.82L492.48-29.82Q495.42-26.18 495.42-20.61L495.42-20.61L495.42-20.61Q495.42-15.04 493.95-11.07L493.95-11.07L493.95-11.07Q492.48-7.10 489.79-4.38ZM475.33-22.34L471.94-3.58L471.94-3.58Q473.28-2.43 474.94-2.43L474.94-2.43L474.94-2.43Q476.61-2.43 477.57-3.07L477.57-3.07L477.57-3.07Q478.53-3.71 479.23-4.99L479.23-4.99L479.23-4.99Q481.15-8.45 482.69-18.94L482.69-18.94L482.69-18.94Q483.14-22.02 483.14-25.02L483.14-25.02L483.14-25.02Q483.14-28.03 482.46-28.99L482.46-28.99L482.46-28.99Q481.79-29.95 480.51-29.95L480.51-29.95L480.51-29.95Q476.61-29.95 475.33-22.34L475.33-22.34Z" fill="#ccc"></path></g></g><style>text {
  font-size: 64px;
  font-family: Arial Black;
  dominant-baseline: central;
  text-anchor: middle;
}</style></svg>